<?xml version="1.0" standalone="no"?>
<!DOCTYPE svg PUBLIC "-//W3C//DTD SVG 20010904//EN"
 "http://www.w3.org/TR/2001/REC-SVG-20010904/DTD/svg10.dtd">
<svg version="1.0" xmlns="http://www.w3.org/2000/svg"
 width="256.000000pt" height="256.000000pt" viewBox="0 0 256.000000 256.000000"
 preserveAspectRatio="xMidYMid meet">
<metadata>
Created by potrace 1.11, written by Peter Selinger 2001-2013
</metadata>
<g transform="translate(0.000000,256.000000) scale(0.100000,-0.100000)"
fill="#000000" stroke="none">
<path d="M144 2367 c-51 -10 -91 -42 -115 -90 -21 -41 -21 -45 -21 -993 -1
-689 3 -961 11 -986 14 -42 54 -82 103 -102 33 -14 167 -16 1150 -16 770 0
1125 3 1153 11 45 12 89 49 113 94 14 27 16 129 17 975 0 521 -3 961 -8 980
-12 49 -49 94 -94 115 -36 18 -96 19 -1155 19 -615 1 -1134 -2 -1154 -7z m685
-631 l274 -274 -275 -278 -276 -278 -37 40 c-21 21 -63 65 -94 97 l-56 58 184
180 184 180 -182 183 -183 183 88 92 c48 50 91 91 94 91 3 0 128 -123 279
-274z m1001 -731 l0 -95 -365 0 -365 0 0 95 0 95 365 0 365 0 0 -95z"/>
</g>
</svg>
